<mxfile host="app.diagrams.net" modified="2020-09-13T22:27:09.033Z" agent="5.0 (Windows NT 10.0; Win64; x64) AppleWebKit/537.36 (KHTML, like Gecko) Chrome/85.0.4183.102 Safari/537.36" etag="Nr7oFvM031PILjWffD8Y" version="13.6.10" type="github">
  <diagram id="HhnIf3Kix34MI0ee5N_B" name="Page-1">
    <mxGraphModel dx="2062" dy="1123" grid="0" gridSize="10" guides="1" tooltips="1" connect="1" arrows="1" fold="1" page="1" pageScale="1" pageWidth="850" pageHeight="1100" math="0" shadow="0">
      <root>
        <mxCell id="0" />
        <mxCell id="1" parent="0" />
        <mxCell id="fJKsE8pSLDMwHGcEIZI4-11" style="edgeStyle=orthogonalEdgeStyle;rounded=0;orthogonalLoop=1;jettySize=auto;html=1;exitX=0.5;exitY=1;exitDx=0;exitDy=0;entryX=0.5;entryY=0;entryDx=0;entryDy=0;" edge="1" parent="1" source="fJKsE8pSLDMwHGcEIZI4-1" target="fJKsE8pSLDMwHGcEIZI4-2">
          <mxGeometry relative="1" as="geometry" />
        </mxCell>
        <mxCell id="fJKsE8pSLDMwHGcEIZI4-1" value="Launcher.vi&lt;br&gt;" style="rounded=0;whiteSpace=wrap;html=1;fillColor=#f5f5f5;strokeColor=#666666;fontColor=#333333;" vertex="1" parent="1">
          <mxGeometry x="360" y="100" width="120" height="60" as="geometry" />
        </mxCell>
        <mxCell id="fJKsE8pSLDMwHGcEIZI4-2" value="ATE Supervisor" style="rounded=0;whiteSpace=wrap;html=1;fillColor=#f8cecc;strokeColor=#b85450;strokeWidth=3;" vertex="1" parent="1">
          <mxGeometry x="360" y="200" width="120" height="60" as="geometry" />
        </mxCell>
        <mxCell id="fJKsE8pSLDMwHGcEIZI4-3" value="ATE Gatekeeper B" style="rounded=0;whiteSpace=wrap;html=1;fillColor=#e1d5e7;strokeWidth=4;strokeColor=#990000;" vertex="1" parent="1">
          <mxGeometry x="360" y="320" width="120" height="60" as="geometry" />
        </mxCell>
        <mxCell id="fJKsE8pSLDMwHGcEIZI4-4" value="ATE Gatekeeper A" style="rounded=0;whiteSpace=wrap;html=1;fillColor=#d5e8d4;strokeColor=#B32222;strokeWidth=4;" vertex="1" parent="1">
          <mxGeometry x="160" y="320" width="120" height="60" as="geometry" />
        </mxCell>
        <mxCell id="fJKsE8pSLDMwHGcEIZI4-5" value="ATE Gatekeeper C" style="rounded=0;whiteSpace=wrap;html=1;fillColor=#dae8fc;strokeColor=#990000;strokeWidth=4;" vertex="1" parent="1">
          <mxGeometry x="560" y="320" width="120" height="60" as="geometry" />
        </mxCell>
        <mxCell id="fJKsE8pSLDMwHGcEIZI4-6" value="Sub Task Manger A" style="rounded=0;whiteSpace=wrap;html=1;strokeWidth=4;fillColor=#d5e8d4;strokeColor=#82b366;" vertex="1" parent="1">
          <mxGeometry x="50" y="430" width="120" height="60" as="geometry" />
        </mxCell>
        <mxCell id="fJKsE8pSLDMwHGcEIZI4-7" value="Sub Task Manager B" style="rounded=0;whiteSpace=wrap;html=1;strokeColor=#82b366;strokeWidth=4;fillColor=#d5e8d4;" vertex="1" parent="1">
          <mxGeometry x="240" y="426" width="120" height="60" as="geometry" />
        </mxCell>
        <mxCell id="fJKsE8pSLDMwHGcEIZI4-8" value="Sub Task Manager C" style="rounded=0;whiteSpace=wrap;html=1;fillColor=#dae8fc;strokeColor=#6c8ebf;strokeWidth=4;" vertex="1" parent="1">
          <mxGeometry x="560" y="420" width="120" height="60" as="geometry" />
        </mxCell>
        <mxCell id="fJKsE8pSLDMwHGcEIZI4-23" value="" style="endArrow=classic;html=1;exitX=0;exitY=1;exitDx=0;exitDy=0;entryX=1;entryY=0;entryDx=0;entryDy=0;" edge="1" parent="1" source="fJKsE8pSLDMwHGcEIZI4-2" target="fJKsE8pSLDMwHGcEIZI4-4">
          <mxGeometry relative="1" as="geometry">
            <mxPoint x="374" y="563" as="sourcePoint" />
            <mxPoint x="474" y="563" as="targetPoint" />
          </mxGeometry>
        </mxCell>
        <mxCell id="fJKsE8pSLDMwHGcEIZI4-24" value="" style="shape=message;html=1;outlineConnect=0;" vertex="1" parent="fJKsE8pSLDMwHGcEIZI4-23">
          <mxGeometry width="20" height="14" relative="1" as="geometry">
            <mxPoint x="-10" y="-7" as="offset" />
          </mxGeometry>
        </mxCell>
        <mxCell id="fJKsE8pSLDMwHGcEIZI4-25" value="" style="endArrow=classic;html=1;exitX=0.5;exitY=1;exitDx=0;exitDy=0;entryX=0.5;entryY=0;entryDx=0;entryDy=0;" edge="1" parent="1" source="fJKsE8pSLDMwHGcEIZI4-2" target="fJKsE8pSLDMwHGcEIZI4-3">
          <mxGeometry relative="1" as="geometry">
            <mxPoint x="374" y="563" as="sourcePoint" />
            <mxPoint x="474" y="563" as="targetPoint" />
          </mxGeometry>
        </mxCell>
        <mxCell id="fJKsE8pSLDMwHGcEIZI4-26" value="" style="shape=message;html=1;outlineConnect=0;" vertex="1" parent="fJKsE8pSLDMwHGcEIZI4-25">
          <mxGeometry width="20" height="14" relative="1" as="geometry">
            <mxPoint x="-10" y="-7" as="offset" />
          </mxGeometry>
        </mxCell>
        <mxCell id="fJKsE8pSLDMwHGcEIZI4-27" value="" style="endArrow=classic;html=1;exitX=1;exitY=1;exitDx=0;exitDy=0;entryX=0.5;entryY=0;entryDx=0;entryDy=0;" edge="1" parent="1" source="fJKsE8pSLDMwHGcEIZI4-2" target="fJKsE8pSLDMwHGcEIZI4-5">
          <mxGeometry relative="1" as="geometry">
            <mxPoint x="541" y="267" as="sourcePoint" />
            <mxPoint x="641" y="267" as="targetPoint" />
          </mxGeometry>
        </mxCell>
        <mxCell id="fJKsE8pSLDMwHGcEIZI4-28" value="" style="shape=message;html=1;outlineConnect=0;" vertex="1" parent="fJKsE8pSLDMwHGcEIZI4-27">
          <mxGeometry width="20" height="14" relative="1" as="geometry">
            <mxPoint x="-10" y="-7" as="offset" />
          </mxGeometry>
        </mxCell>
        <mxCell id="fJKsE8pSLDMwHGcEIZI4-29" value="" style="endArrow=classic;html=1;exitX=1;exitY=1;exitDx=0;exitDy=0;entryX=0.5;entryY=0;entryDx=0;entryDy=0;" edge="1" parent="1" source="fJKsE8pSLDMwHGcEIZI4-4" target="fJKsE8pSLDMwHGcEIZI4-7">
          <mxGeometry relative="1" as="geometry">
            <mxPoint x="354" y="410" as="sourcePoint" />
            <mxPoint x="454" y="410" as="targetPoint" />
          </mxGeometry>
        </mxCell>
        <mxCell id="fJKsE8pSLDMwHGcEIZI4-30" value="" style="shape=message;html=1;outlineConnect=0;" vertex="1" parent="fJKsE8pSLDMwHGcEIZI4-29">
          <mxGeometry width="20" height="14" relative="1" as="geometry">
            <mxPoint x="-10" y="-7" as="offset" />
          </mxGeometry>
        </mxCell>
        <mxCell id="fJKsE8pSLDMwHGcEIZI4-31" value="" style="endArrow=classic;html=1;exitX=0;exitY=1;exitDx=0;exitDy=0;entryX=0.5;entryY=0;entryDx=0;entryDy=0;" edge="1" parent="1" source="fJKsE8pSLDMwHGcEIZI4-4" target="fJKsE8pSLDMwHGcEIZI4-6">
          <mxGeometry relative="1" as="geometry">
            <mxPoint x="60" y="400" as="sourcePoint" />
            <mxPoint x="160" y="400" as="targetPoint" />
          </mxGeometry>
        </mxCell>
        <mxCell id="fJKsE8pSLDMwHGcEIZI4-32" value="" style="shape=message;html=1;outlineConnect=0;" vertex="1" parent="fJKsE8pSLDMwHGcEIZI4-31">
          <mxGeometry width="20" height="14" relative="1" as="geometry">
            <mxPoint x="-10" y="-7" as="offset" />
          </mxGeometry>
        </mxCell>
        <mxCell id="fJKsE8pSLDMwHGcEIZI4-33" value="" style="endArrow=classic;html=1;entryX=0.5;entryY=0;entryDx=0;entryDy=0;exitX=0.5;exitY=1;exitDx=0;exitDy=0;" edge="1" parent="1" source="fJKsE8pSLDMwHGcEIZI4-5" target="fJKsE8pSLDMwHGcEIZI4-8">
          <mxGeometry relative="1" as="geometry">
            <mxPoint x="609" y="380" as="sourcePoint" />
            <mxPoint x="709" y="380" as="targetPoint" />
          </mxGeometry>
        </mxCell>
        <mxCell id="fJKsE8pSLDMwHGcEIZI4-34" value="" style="shape=message;html=1;outlineConnect=0;" vertex="1" parent="fJKsE8pSLDMwHGcEIZI4-33">
          <mxGeometry width="20" height="14" relative="1" as="geometry">
            <mxPoint x="-10" y="-7" as="offset" />
          </mxGeometry>
        </mxCell>
      </root>
    </mxGraphModel>
  </diagram>
</mxfile>
